<svg xmlns="http://www.w3.org/2000/svg" viewBox="0 0 160 140">
 <defs>
  <linearGradient id="green" x2="1" y2="1"><stop stop-color="#c4ff68"/><stop offset=".5" stop-color="#22bb66"/><stop offset="1" stop-color="#057e61"/></linearGradient>
  <linearGradient id="blue" x2="0" y2="1"><stop stop-color="#85e9ff"/><stop offset="1" stop-color="#185aa5"/></linearGradient>
  <linearGradient id="gold" x2="0" y2="1"><stop stop-color="#fff5b3"/><stop offset=".5" stop-color="#e3b847"/><stop offset="1" stop-color="#af6e26"/></linearGradient>
 </defs>
 <path d="M39 112Q38 69 14 44Q48 44 64 69Q68 33 80 14Q97 37 97 69Q122 45 148 43Q125 69 123 112Z" fill="url(#green)" stroke="#17667c" stroke-width="4"/>
 <path d="M80 19Q70 63 74 111H95Q101 68 80 19" fill="url(#blue)"/>
 <path d="M17 47Q48 67 48 110H65Q62 71 17 47M144 47Q109 68 108 110H123Q124 69 144 47" fill="#54dfc3" opacity=".85"/>
 <g fill="url(#blue)" stroke="#155c81" stroke-width="3"><circle cx="14" cy="42" r="11"/><circle cx="80" cy="14" r="12"/><circle cx="147" cy="42" r="11"/></g>
 <path d="M36 108Q79 122 126 108L125 127Q80 140 37 127Z" fill="url(#gold)" stroke="#865a29" stroke-width="3"/>
 <path d="M42 116Q81 127 119 116" fill="none" stroke="#fff8c5" stroke-width="3"/>
 <path d="M81 119L89 127L81 136L73 127Z" fill="#35bdda" stroke="#fff4b5" stroke-width="2"/>
</svg>
